<svg xmlns="http://www.w3.org/2000/svg" width="10" height="17" viewBox="0 0 10 17" fill="none">
  <path d="M9.15757 1.36708C9.06564 1.27493 8.95644 1.20181 8.83621 1.15192C8.71599 1.10203 8.5871 1.07635 8.45694 1.07635C8.32677 1.07635 8.19789 1.10203 8.07766 1.15192C7.95744 1.20181 7.84824 1.27493 7.75631 1.36708L1.17756 7.94583C1.10417 8.01907 1.04595 8.10607 1.00622 8.20184C0.966494 8.29761 0.946045 8.40027 0.946045 8.50396C0.946045 8.60764 0.966494 8.71031 1.00622 8.80608C1.04595 8.90185 1.10417 8.98884 1.17756 9.06208L7.75631 15.6408C8.14423 16.0287 8.76965 16.0287 9.15757 15.6408C9.54548 15.2529 9.54548 14.6275 9.15757 14.2396L3.4259 8.5L9.16548 2.76042C9.54548 2.38042 9.54548 1.74708 9.15757 1.36708Z" fill="#1E232C" stroke="#1E232C" stroke-width="0.2"/>
</svg>