<svg xmlns="http://www.w3.org/2000/svg" width="24" height="24" viewBox="0 0 24 24" fill="none">
  <g clip-path="url(#clip0_211_2953)">
    <path d="M13.8297 19C13.6803 19.0005 13.5327 18.9675 13.3977 18.9035C13.2627 18.8394 13.1438 18.746 13.0497 18.63L8.21968 12.63C8.07259 12.451 7.99219 12.2266 7.99219 11.995C7.99219 11.7633 8.07259 11.5389 8.21968 11.36L13.2197 5.35997C13.3894 5.15575 13.6333 5.02733 13.8978 5.00295C14.1622 4.97857 14.4255 5.06023 14.6297 5.22997C14.8339 5.39971 14.9623 5.64362 14.9867 5.90805C15.0111 6.17247 14.9294 6.43575 14.7597 6.63997L10.2897 12L14.6097 17.36C14.732 17.5068 14.8096 17.6855 14.8335 17.875C14.8574 18.0646 14.8265 18.257 14.7444 18.4295C14.6624 18.6021 14.5326 18.7475 14.3705 18.8486C14.2084 18.9497 14.0207 19.0022 13.8297 19Z" fill="white"/>
  </g>
  <defs>
    <clipPath id="clip0_211_2953">
      <rect width="24" height="24" fill="white"/>
    </clipPath>
  </defs>
</svg>