<svg width="100" height="100" viewBox="0 0 100 100" fill="none" xmlns="http://www.w3.org/2000/svg">
<g clip-path="url(#clip0_4234_10922)">
<path d="M65.9201 97.3965C65.3994 97.5724 64.8752 97.7431 64.3477 97.9C64.877 97.7414 65.3994 97.5707 65.9201 97.3965Z" fill="#F3EEFF"/>
<path d="M68.5325 96.4379C67.9704 96.6621 67.4084 96.8828 66.8359 97.0862C67.4084 96.881 67.9721 96.6621 68.5325 96.4379Z" fill="#F3EEFF"/>
<path d="M50 100C77.6142 100 100 77.6142 100 50C100 22.3858 77.6142 0 50 0C22.3858 0 0 22.3858 0 50C0 77.6142 22.3858 100 50 100Z" fill="#F3EEFF"/>
<path d="M46.3793 99.8552C45.7689 99.8121 45.1603 99.7655 44.5586 99.7C45.162 99.7655 45.7707 99.8121 46.3793 99.8552Z" fill="#F3EEFF"/>
<path d="M38.2033 98.5862C37.686 98.4603 37.1722 98.3258 36.6602 98.1844C37.1722 98.3276 37.686 98.462 38.2033 98.5862Z" fill="#F3EEFF"/>
<path d="M43.5234 99.5689C42.9768 99.4982 42.432 99.4241 41.8906 99.3362C42.4303 99.4241 42.9768 99.4965 43.5234 99.5689Z" fill="#F3EEFF"/>
<path d="M30.7351 96.1483C29.9575 95.8224 29.1885 95.481 28.4316 95.119C29.1903 95.481 29.9592 95.8241 30.7351 96.1483Z" fill="#F3EEFF"/>
<path d="M60.7435 98.8311C60.2245 98.9448 59.7038 99.0483 59.1797 99.1449C59.7021 99.0483 60.2245 98.9448 60.7435 98.8311Z" fill="#F3EEFF"/>
<path d="M58.1132 99.3345C57.5719 99.4224 57.027 99.4965 56.4805 99.5672C57.0253 99.4965 57.5719 99.4241 58.1132 99.3345Z" fill="#F3EEFF"/>
<path d="M71.5587 95.1224C70.8053 95.4828 70.0398 95.8242 69.2656 96.1483C70.0398 95.8242 70.8053 95.4845 71.5587 95.1224Z" fill="#F3EEFF"/>
<path d="M69.2662 96.1483C69.0248 96.25 68.7783 96.3396 68.5352 96.4362C68.7765 96.3396 69.0231 96.25 69.2662 96.1483Z" fill="#F3EEFF"/>
<path d="M71.6276 95.0914C71.6051 95.1017 71.581 95.1121 71.5586 95.1224C71.581 95.1121 71.6051 95.1034 71.6276 95.0914Z" fill="#F3EEFF"/>
<path d="M41.8895 99.3345C41.5326 99.2759 41.1774 99.2104 40.8223 99.1448C41.1792 99.2104 41.5326 99.2776 41.8895 99.3345Z" fill="#F3EEFF"/>
<path d="M47.2599 99.9224C46.9651 99.9069 46.672 99.8759 46.3789 99.8552C46.6737 99.8759 46.9651 99.9069 47.2599 99.9224Z" fill="#F3EEFF"/>
<path d="M31.4674 96.4379C31.2243 96.3413 30.9777 96.25 30.7363 96.15C30.9777 96.25 31.2243 96.3396 31.4674 96.4379Z" fill="#F3EEFF"/>
<path d="M34.0796 97.3965C33.7744 97.2931 33.4658 97.1948 33.1641 97.0862C33.4658 97.1948 33.7727 97.2931 34.0796 97.3965Z" fill="#F3EEFF"/>
<path d="M56.4778 99.569C56.133 99.6138 55.7899 99.6638 55.4434 99.7C55.7899 99.6621 56.133 99.6138 56.4778 99.569Z" fill="#F3EEFF"/>
<path d="M61.7993 98.5862C61.4493 98.6707 61.0976 98.7517 60.7441 98.8293C61.0976 98.7534 61.4493 98.6724 61.7993 98.5862Z" fill="#F3EEFF"/>
<path d="M36.661 98.1862C36.3248 98.0931 35.9868 98 35.6523 97.9C35.9868 98 36.323 98.0931 36.661 98.1862Z" fill="#F3EEFF"/>
<path d="M61.4444 53.4379C67.0151 49.7293 70.6892 43.4 70.6892 36.2069C70.6892 24.781 61.4254 15.5172 49.9995 15.5172C38.5737 15.5172 29.3099 24.781 29.3099 36.2069C29.3099 43.4 32.984 49.7293 38.5547 53.4379C38.5547 53.4379 38.5564 53.4396 38.5582 53.4396C38.5564 53.4396 38.5564 53.4379 38.5564 53.4379C25.222 57.4569 14.8392 68.2793 11.4961 81.8948L11.4978 81.8965C12.0426 82.5534 12.6082 83.1948 13.1857 83.8241C13.3254 83.9776 13.472 84.1241 13.6151 84.2741C14.0599 84.7465 14.5099 85.212 14.972 85.6672C15.1633 85.8551 15.3582 86.0362 15.553 86.2207C15.9806 86.6276 16.4133 87.0293 16.8547 87.4207C17.0737 87.6138 17.2961 87.8051 17.5168 87.9948C17.9495 88.3655 18.3875 88.7293 18.834 89.0844C19.0685 89.2724 19.3047 89.4569 19.5409 89.6413C19.9926 89.9896 20.4513 90.3276 20.9151 90.6586C21.1547 90.8293 21.3909 91.0034 21.634 91.1707C22.1237 91.5086 22.622 91.8327 23.1237 92.1534C23.3495 92.2965 23.5702 92.4448 23.7978 92.5862C24.3771 92.9431 24.9668 93.2845 25.5616 93.6189C25.7185 93.7069 25.872 93.8017 26.0306 93.8879C26.7995 94.3086 27.5806 94.712 28.3737 95.0931C28.3926 95.1017 28.4133 95.1103 28.4323 95.1189C29.1892 95.481 29.9582 95.8241 30.7357 96.1482C30.9771 96.25 31.2237 96.3396 31.4668 96.4362C32.0289 96.6603 32.5909 96.881 33.1633 97.0844C33.4668 97.1931 33.7737 97.2913 34.0789 97.3948C34.5995 97.5707 35.1237 97.7413 35.6513 97.8982C35.9857 97.9982 36.322 98.0913 36.6599 98.1844C37.1702 98.3258 37.684 98.4603 38.203 98.5862C38.553 98.6707 38.9047 98.7517 39.2582 98.8293C39.7771 98.9431 40.2978 99.0465 40.822 99.1431C41.1771 99.2086 41.5306 99.2758 41.8892 99.3327C42.4306 99.4207 42.9754 99.4948 43.522 99.5655C43.8668 99.6103 44.2099 99.6603 44.5564 99.6965C45.1599 99.762 45.7685 99.8086 46.3771 99.8517C46.672 99.8724 46.9633 99.9034 47.2582 99.9189C48.1668 99.9707 49.0789 100 49.9995 100C50.9202 100 51.8323 99.9707 52.7409 99.9224C53.0358 99.9069 53.3288 99.8758 53.622 99.8551C54.2323 99.812 54.8409 99.7655 55.4426 99.7C55.7892 99.662 56.1323 99.6138 56.4771 99.5689C57.0237 99.4982 57.5685 99.4241 58.1099 99.3362C58.4668 99.2776 58.822 99.212 59.1771 99.1465C59.7013 99.05 60.2237 98.9465 60.7409 98.8327C61.0944 98.7551 61.4461 98.6741 61.7961 98.5896C62.3133 98.4638 62.8271 98.3293 63.3392 98.1879C63.6754 98.0948 64.0133 98.0017 64.3478 97.9017C64.8771 97.7431 65.3995 97.5724 65.9202 97.3982C66.2254 97.2948 66.534 97.1965 66.8357 97.0879C67.4064 96.8827 67.9702 96.6638 68.5323 96.4396C68.7754 96.3431 69.022 96.2517 69.2633 96.1517C70.0375 95.8276 70.803 95.4879 71.5564 95.1258C71.5788 95.1155 71.603 95.1051 71.6254 95.0948C72.4185 94.7138 73.1995 94.3103 73.9685 93.8896C74.1271 93.8034 74.2806 93.7086 74.4375 93.6207C75.0323 93.2862 75.622 92.9448 76.2013 92.5879C76.4288 92.4482 76.6513 92.3 76.8754 92.1551C77.3771 91.8344 77.8754 91.5086 78.3651 91.1724C78.6064 91.0051 78.8444 90.8327 79.084 90.6603C79.5478 90.3276 80.0064 89.9896 80.4582 89.6431C80.6961 89.4603 80.9306 89.2741 81.1651 89.0862C81.6099 88.731 82.0495 88.3672 82.4823 87.9965C82.7047 87.8069 82.9271 87.6155 83.1444 87.4224C83.5857 87.031 84.0185 86.6293 84.4461 86.2224C84.6392 86.0379 84.8358 85.8551 85.0271 85.6689C85.4892 85.2138 85.9409 84.7482 86.384 84.2758C86.5254 84.1241 86.672 83.9776 86.8133 83.8258C87.3909 83.1965 87.9564 82.5551 88.5013 81.8982L88.503 81.8965C85.1616 68.2793 74.7789 57.4569 61.4444 53.4379Z" fill="#552CC5"/>
</g>
<defs>
<clipPath id="clip0_4234_10922">
<rect width="100" height="100" fill="white"/>
</clipPath>
</defs>
</svg>
