<svg xmlns="http://www.w3.org/2000/svg" width="28" height="28" viewBox="0 0 28 28" fill="none">
  <path d="M17.185 2.33331H10.815V7.41998H17.185V2.33331ZM18.935 2.33331V7.41998H25.515C24.92 4.21165 22.5516 2.34498 18.935 2.33331ZM2.33331 9.16998V18.8883C2.33331 23.135 4.86498 25.6666 9.11165 25.6666H18.8883C23.135 25.6666 25.6666 23.135 25.6666 18.8883V9.16998H2.33331ZM16.8466 18.8766L14.42 20.2766C13.9066 20.5683 13.405 20.72 12.9383 20.72C12.5883 20.72 12.2733 20.6383 11.9816 20.475C11.305 20.09 10.9316 19.2966 10.9316 18.27V15.47C10.9316 14.4433 11.305 13.65 11.9816 13.265C12.6583 12.8683 13.5216 12.9383 14.42 13.4633L16.8466 14.8633C17.745 15.3766 18.235 16.1 18.235 16.8816C18.235 17.6633 17.7333 18.3516 16.8466 18.8766ZM9.06381 2.33331C5.44715 2.34498 3.07881 4.21165 2.48381 7.41998H9.06381V2.33331Z" fill="#F74346"/>
</svg>