<svg width="20" height="20" viewBox="0 0 20 20" fill="none" xmlns="http://www.w3.org/2000/svg">
<g id="icon/camera">
<path id="Icon (Stroke)" fill-rule="evenodd" clip-rule="evenodd" d="M7.96543 0.833316C7.97187 0.833318 7.97838 0.833319 7.98494 0.833319L12.0359 0.833316C12.1277 0.833294 12.2076 0.833274 12.2839 0.837892C13.2479 0.896276 14.0921 1.50472 14.4523 2.40082C14.4808 2.4717 14.5061 2.5475 14.5351 2.63464L14.5412 2.65313C14.5799 2.7691 14.5883 2.79309 14.5954 2.81082C14.7155 3.10952 14.9969 3.31233 15.3182 3.3318C15.3371 3.33294 15.3653 3.33332 15.496 3.33332C15.5118 3.33332 15.5273 3.33332 15.5426 3.33331C15.8049 3.33326 15.9977 3.33322 16.1627 3.34956C17.7437 3.50621 18.9944 4.75695 19.1511 6.338C19.1674 6.50288 19.1674 6.68792 19.1673 6.93778C19.1673 6.95197 19.1673 6.96638 19.1673 6.98101V13.5344C19.1673 14.2052 19.1673 14.7588 19.1305 15.2098C19.0922 15.6783 19.0101 16.1088 18.804 16.5133C18.4844 17.1405 17.9745 17.6504 17.3473 17.97C16.9429 18.1761 16.5123 18.2582 16.0438 18.2965C15.5929 18.3333 15.0392 18.3333 14.3684 18.3333H5.63289C4.96209 18.3333 4.40847 18.3333 3.95747 18.2965C3.48906 18.2582 3.05847 18.1761 2.65403 17.97C2.02682 17.6504 1.51689 17.1405 1.19731 16.5133C0.991232 16.1088 0.909095 15.6783 0.870824 15.2098C0.833976 14.7588 0.833985 14.2052 0.833995 13.5344L0.833996 6.98101C0.833996 6.96638 0.833993 6.95197 0.83399 6.93778C0.833939 6.68793 0.833901 6.50289 0.850237 6.338C1.00689 4.75695 2.25763 3.50621 3.83867 3.34956C4.00361 3.33322 4.19639 3.33326 4.45877 3.33331C4.47405 3.33332 4.48956 3.33332 4.50532 3.33332C4.63599 3.33332 4.66427 3.33294 4.68311 3.3318C5.00445 3.31233 5.28584 3.10952 5.40592 2.81082C5.41305 2.79309 5.42143 2.76911 5.46009 2.65313C5.46217 2.64689 5.46423 2.64072 5.46627 2.63459C5.49528 2.54748 5.52053 2.47168 5.54902 2.40082C5.90926 1.50472 6.75343 0.896276 7.71746 0.837892C7.7937 0.833274 7.8736 0.833294 7.96543 0.833316ZM7.98494 2.49999C7.86269 2.49999 7.83729 2.50036 7.81822 2.50151C7.49687 2.52097 7.21548 2.72379 7.0954 3.02249C7.08828 3.04021 7.07989 3.0642 7.04123 3.18018C7.03915 3.18641 7.0371 3.19259 7.03506 3.19871C7.00604 3.28583 6.9808 3.36162 6.95231 3.43248C6.59207 4.32858 5.74789 4.93703 4.78386 4.99541C4.70757 5.00003 4.62393 5.00001 4.52669 4.99999C4.51964 4.99999 4.51251 4.99999 4.50532 4.99999C4.17632 4.99999 4.07436 5.00104 4.003 5.00811C3.21248 5.08643 2.58711 5.7118 2.50878 6.50233C2.50169 6.57396 2.50066 6.66913 2.50066 6.98101V13.5C2.50066 14.2138 2.50131 14.699 2.53196 15.0741C2.56181 15.4395 2.61591 15.6263 2.68232 15.7566C2.84211 16.0702 3.09708 16.3252 3.41068 16.485C3.54101 16.5514 3.72785 16.6055 4.09319 16.6354C4.46827 16.666 4.95351 16.6667 5.66733 16.6667H14.334C15.0478 16.6667 15.5331 16.666 15.9081 16.6354C16.2735 16.6055 16.4603 16.5514 16.5906 16.485C16.9042 16.3252 17.1592 16.0702 17.319 15.7566C17.3854 15.6263 17.4395 15.4395 17.4694 15.0741C17.5 14.699 17.5007 14.2138 17.5007 13.5V6.98101C17.5007 6.66913 17.4996 6.57396 17.4925 6.50233C17.4142 5.7118 16.7888 5.08643 15.9983 5.00811C15.927 5.00104 15.825 4.99999 15.496 4.99999L15.4746 4.99999C15.3774 5.00001 15.2938 5.00003 15.2175 4.99541C14.2534 4.93703 13.4093 4.32858 13.049 3.43248C13.0205 3.36161 12.9953 3.2858 12.9663 3.19866L12.9601 3.18018C12.9214 3.0642 12.913 3.04021 12.9059 3.02249C12.7858 2.72379 12.5045 2.52097 12.1831 2.50151C12.164 2.50036 12.1386 2.49999 12.0164 2.49999H7.98494ZM10.0007 7.91665C8.61995 7.91665 7.50066 9.03594 7.50066 10.4167C7.50066 11.7974 8.61995 12.9167 10.0007 12.9167C11.3814 12.9167 12.5007 11.7974 12.5007 10.4167C12.5007 9.03594 11.3814 7.91665 10.0007 7.91665ZM5.834 10.4167C5.834 8.11547 7.69948 6.24999 10.0007 6.24999C12.3018 6.24999 14.1673 8.11547 14.1673 10.4167C14.1673 12.7178 12.3018 14.5833 10.0007 14.5833C7.69948 14.5833 5.834 12.7178 5.834 10.4167Z" fill="black"/>
</g>
</svg>
