<svg xmlns="http://www.w3.org/2000/svg" width="31" height="31" viewBox="0 0 31 31" fill="none">
  <path d="M2.58337 12.9812V11.6896C2.58337 9.34306 3.71358 7.45399 5.974 6.0224C8.23442 4.5908 11.4098 3.875 15.5 3.875C19.5903 3.875 22.7657 4.5908 25.0261 6.0224C27.2865 7.45399 28.4167 9.34306 28.4167 11.6896V12.9812H2.58337ZM2.58337 18.6646V16.7271C3.29379 16.7271 3.91271 16.4903 4.44015 16.0167C4.96758 15.5431 5.81254 15.3063 6.97504 15.3063C8.13754 15.3063 8.90716 15.5431 9.2839 16.0167C9.66063 16.4903 10.2903 16.7271 11.173 16.7271C12.0556 16.7271 12.7068 16.4903 13.1266 16.0167C13.5464 15.5431 14.3375 15.3063 15.5 15.3063C16.6625 15.3063 17.4537 15.5431 17.8735 16.0167C18.2933 16.4903 18.9445 16.7271 19.8271 16.7271C20.7098 16.7271 21.3395 16.4903 21.7162 16.0167C22.0929 15.5431 22.8625 15.3063 24.025 15.3063C25.1875 15.3063 26.0325 15.5431 26.5599 16.0167C27.0874 16.4903 27.7063 16.7271 28.4167 16.7271V18.6646C27.2542 18.6646 26.4523 18.4278 26.011 17.9542C25.5697 17.4806 24.9077 17.2437 24.025 17.2437C23.1424 17.2437 22.5127 17.4806 22.136 17.9542C21.7592 18.4278 20.9896 18.6646 19.8271 18.6646C18.6646 18.6646 17.8735 18.4278 17.4537 17.9542C17.0339 17.4806 16.3827 17.2437 15.5 17.2437C14.6174 17.2437 13.9662 17.4806 13.5464 17.9542C13.1266 18.4278 12.3355 18.6646 11.173 18.6646C10.0105 18.6646 9.24084 18.4278 8.8641 17.9542C8.48737 17.4806 7.85768 17.2437 6.97504 17.2437C6.0924 17.2437 5.43042 17.4806 4.9891 17.9542C4.54778 18.4278 3.74587 18.6646 2.58337 18.6646ZM4.52087 27.125C4.00421 27.125 3.55212 26.9312 3.16462 26.5437C2.77712 26.1562 2.58337 25.7042 2.58337 25.1875V21.0542H28.4167V25.1875C28.4167 25.7042 28.223 26.1562 27.8355 26.5437C27.448 26.9312 26.9959 27.125 26.4792 27.125H4.52087Z" fill="#F74346"/>
</svg>