<svg width="24" height="24" viewBox="0 0 24 24" fill="none" xmlns="http://www.w3.org/2000/svg">
<path d="M3 10.5651C3 9.9907 3 9.70352 3.07403 9.43905C3.1396 9.20478 3.24737 8.98444 3.39203 8.78886C3.55534 8.56806 3.78202 8.39175 4.23539 8.03912L11.0177 2.764C11.369 2.49075 11.5447 2.35412 11.7387 2.3016C11.9098 2.25526 12.0902 2.25526 12.2613 2.3016C12.4553 2.35412 12.631 2.49075 12.9823 2.764L19.7646 8.03913C20.218 8.39175 20.4447 8.56806 20.608 8.78886C20.7526 8.98444 20.8604 9.20478 20.926 9.43905C21 9.70352 21 9.9907 21 10.5651V17.8C21 18.9201 21 19.4801 20.782 19.908C20.5903 20.2843 20.2843 20.5903 19.908 20.782C19.4802 21 18.9201 21 17.8 21H6.2C5.0799 21 4.51984 21 4.09202 20.782C3.71569 20.5903 3.40973 20.2843 3.21799 19.908C3 19.4801 3 18.9201 3 17.8V10.5651Z" fill="#FFE7A8"/>
<path d="M9 21V13.6C9 13.0399 9 12.7599 9.10899 12.546C9.20487 12.3578 9.35785 12.2049 9.54601 12.109C9.75992 12 10.0399 12 10.6 12H13.4C13.9601 12 14.2401 12 14.454 12.109C14.6422 12.2049 14.7951 12.3578 14.891 12.546C15 12.7599 15 13.0399 15 13.6V21" fill="#FFE7A8"/>
<path fill-rule="evenodd" clip-rule="evenodd" d="M11.9362 3.02514C11.9296 3.02784 11.9055 3.03912 11.8538 3.07365C11.7694 3.13003 11.6622 3.21283 11.4782 3.35601L4.69584 8.63114C4.20895 9.00984 4.08271 9.11627 3.99502 9.23484C3.9046 9.35708 3.83725 9.4948 3.79627 9.64121C3.75651 9.78323 3.75 9.94822 3.75 10.5651V17.8C3.75 18.3724 3.75058 18.7566 3.77476 19.0525C3.79822 19.3396 3.8401 19.4769 3.88624 19.5675C4.00608 19.8027 4.19731 19.9939 4.43251 20.1137C4.52307 20.1599 4.66035 20.2018 4.94748 20.2252C5.24336 20.2494 5.62757 20.25 6.2 20.25H8.25L8.25 13.5738C8.24998 13.3163 8.24996 13.0798 8.26611 12.8821C8.28353 12.669 8.32339 12.4358 8.44074 12.2055C8.60852 11.8762 8.87623 11.6085 9.20552 11.4407C9.43582 11.3234 9.66899 11.2835 9.88213 11.2661C10.0798 11.2499 10.3163 11.25 10.5738 11.25H13.4262C13.6837 11.25 13.9202 11.2499 14.1179 11.2661C14.331 11.2835 14.5642 11.3234 14.7945 11.4407C15.1238 11.6085 15.3915 11.8762 15.5593 12.2055C15.6766 12.4358 15.7165 12.669 15.7339 12.8821C15.75 13.0798 15.75 13.3163 15.75 13.5738L15.75 20.25H17.8C18.3724 20.25 18.7566 20.2494 19.0525 20.2252C19.3396 20.2018 19.4769 20.1599 19.5675 20.1137C19.8027 19.9939 19.9939 19.8027 20.1138 19.5675C20.1599 19.4769 20.2018 19.3396 20.2252 19.0525C20.2494 18.7566 20.25 18.3724 20.25 17.8V10.5651C20.25 9.94822 20.2435 9.78323 20.2037 9.64121C20.1627 9.49479 20.0954 9.35708 20.005 9.23484C19.9173 9.11627 19.791 9.00984 19.3042 8.63114L12.5218 3.35601C12.3378 3.21283 12.2306 3.13003 12.1462 3.07365C12.0945 3.03912 12.0704 3.02784 12.0638 3.02514C12.022 3.01408 11.978 3.01408 11.9362 3.02514ZM12.0619 3.02442C12.0619 3.02439 12.0627 3.02468 12.0638 3.02514ZM17.8305 21.75C18.3646 21.75 18.8104 21.75 19.1747 21.7202C19.5546 21.6892 19.9112 21.6221 20.2485 21.4503C20.7659 21.1866 21.1866 20.7659 21.4503 20.2485C21.6221 19.9112 21.6892 19.5545 21.7203 19.1747C21.75 18.8104 21.75 18.3646 21.75 17.8304V10.5651C21.75 10.5362 21.75 10.5076 21.75 10.4794C21.7504 9.98875 21.7506 9.60278 21.6482 9.23689C21.558 8.91477 21.4099 8.6118 21.211 8.34287C20.985 8.03739 20.6802 7.80064 20.2927 7.49967C20.2704 7.48237 20.2479 7.46486 20.2251 7.44711L13.4428 2.17198C13.4193 2.15371 13.3957 2.13525 13.3719 2.11667C13.0961 1.9008 12.8026 1.67115 12.4574 1.57767C12.1578 1.49657 11.8422 1.49657 11.5426 1.57767C11.1974 1.67115 10.9039 1.9008 10.6281 2.11667C10.6043 2.13524 10.5807 2.15371 10.5572 2.17198L3.77493 7.44711C3.75212 7.46486 3.72957 7.48237 3.7073 7.49966C3.3198 7.80064 3.01497 8.03739 2.78904 8.34287C2.59013 8.6118 2.44195 8.91477 2.35179 9.23689C2.24937 9.60278 2.24963 9.98874 2.24996 10.4794C2.24998 10.5076 2.25 10.5361 2.25 10.5651L2.25 17.8304C2.24999 18.3646 2.24998 18.8104 2.27974 19.1747C2.31078 19.5545 2.37789 19.9112 2.54973 20.2485C2.81338 20.7659 3.23408 21.1866 3.75152 21.4503C4.08879 21.6221 4.44544 21.6892 4.82533 21.7202C5.18956 21.75 5.6354 21.75 6.16955 21.75H17.8305ZM14.25 20.25V13.6C14.25 13.3076 14.2494 13.1334 14.2389 13.0043C14.2324 12.9255 14.2239 12.8923 14.2212 12.8834C14.1977 12.8388 14.1612 12.8023 14.1165 12.7788C14.1077 12.7761 14.0745 12.7676 13.9957 12.7611C13.8666 12.7506 13.6924 12.75 13.4 12.75H10.6C10.3076 12.75 10.1334 12.7506 10.0043 12.7611C9.92547 12.7676 9.89234 12.7761 9.88346 12.7788C9.83882 12.8023 9.80234 12.8388 9.77882 12.8834C9.77607 12.8923 9.76757 12.9255 9.76113 13.0043C9.75058 13.1334 9.75 13.3076 9.75 13.6V20.25H14.25ZM9.77973 12.8809C9.77974 12.8809 9.77956 12.8814 9.77917 12.8824ZM9.88087 12.7797C9.88084 12.7797 9.88131 12.7795 9.88236 12.7792ZM14.1191 12.7797C14.1191 12.7797 14.1186 12.7795 14.1176 12.7792ZM14.2203 12.8809C14.2203 12.8808 14.2205 12.8813 14.2208 12.8824ZM11.9362 3.02514C11.9373 3.02468 11.9381 3.02439 11.9381 3.02442Z" fill="#EEC55B"/>
</svg>
