<svg xmlns="http://www.w3.org/2000/svg" width="20" height="20" viewBox="0 0 20 20" fill="none">
  <path d="M10 11.7588C9.67672 11.7588 9.41406 12.0214 9.41406 12.3448C9.41406 12.6681 9.67672 12.9307 10 12.9307C10.3234 12.9307 10.586 12.6681 10.586 12.3448C10.586 12.0214 10.3234 11.7588 10 11.7588Z" fill="black"/>
  <path d="M13.5155 8.24268H6.21797C4.09938 8.24268 2.38184 9.96013 2.38184 12.0788C2.38184 15.6978 4.7834 19.061 8.32168 19.821C13.2501 20.8796 17.6173 17.0927 17.6173 12.3445C17.6173 10.0792 15.7809 8.24268 13.5155 8.24268ZM10.5856 13.9945V17.0715C10.5856 17.3954 10.3234 17.6574 9.99958 17.6574C9.67567 17.6574 9.4136 17.3954 9.4136 17.0715V13.9945C8.73301 13.7518 8.24164 13.1075 8.24164 12.3445C8.24164 11.3752 9.0302 10.5866 9.99958 10.5866C10.969 10.5866 11.7575 11.3752 11.7575 12.3445C11.7575 13.1075 11.2661 13.7518 10.5856 13.9945Z" fill="black"/>
  <path d="M10.0004 0C7.08223 0 4.72656 2.35562 4.72656 5.27383V7.3234C5.20102 7.17391 5.69582 7.07086 6.21899 7.07086H7.07051V5.27383C7.07051 3.65652 8.38309 2.34395 10.0004 2.34395C11.6177 2.34395 12.9303 3.65652 12.9303 5.27383V7.07082H13.5163C14.1356 7.07082 14.7216 7.19777 15.2742 7.3948V5.27383C15.2742 2.35844 12.9128 0 10.0004 0Z" fill="black"/>
</svg>