<svg xmlns="http://www.w3.org/2000/svg" width="24" height="24" viewBox="0 0 24 24" fill="none">
  <path fill-rule="evenodd" clip-rule="evenodd" d="M8.4356 16.5218L7.9988 22.3518C7.9681 22.7614 8.3323 23.0436 8.65805 22.861C10.9644 21.5691 18.1891 16.8239 21.8508 6.39491C22.0188 5.91651 21.5676 5.48481 21.1823 5.75466C19.0194 7.26946 14.2923 10.4003 11.3711 10.9967C11.3711 10.9967 13.2418 9.69726 14.3616 7.70261C14.4713 7.50711 14.4622 7.25676 14.3398 7.08026L10.2564 1.19459C10.0144 0.845697 9.5177 0.990247 9.4303 1.43497L8.15905 7.90361L2.19219 13.1113C1.89301 13.3723 1.95404 13.8998 2.29945 14.0395L8.4356 16.5218Z" fill="black" fill-opacity="0.65"/>
  <path d="M8.6849 16.5404L8.69854 16.3584L8.52935 16.29L2.3932 13.8077L2.39319 13.8077C2.3241 13.7798 2.26553 13.7053 2.25244 13.5921C2.23943 13.4796 2.27783 13.3683 2.35653 13.2996L2.35657 13.2996L8.32344 8.09196L8.38787 8.03573L8.40436 7.95182L9.67561 1.48318C9.70246 1.34655 9.78532 1.27755 9.85521 1.25722C9.91943 1.23853 9.9924 1.2527 10.0509 1.33707L10.0509 1.3371L14.1344 7.22273C14.1344 7.22274 14.1344 7.22276 14.1344 7.22277C14.1996 7.3168 14.2088 7.46399 14.1436 7.58023C13.6003 8.54795 12.8717 9.35183 12.2747 9.91592C11.9769 10.1973 11.7137 10.4173 11.5255 10.5666C11.4314 10.6412 11.3563 10.698 11.305 10.7359C11.2794 10.7548 11.2598 10.769 11.2468 10.7783L11.2324 10.7885L11.2291 10.7909L11.2284 10.7913L11.2284 10.7913L11.2284 10.7914L11.2286 10.7917L11.4211 11.2416C12.9246 10.9346 14.867 9.98416 16.6858 8.9367C18.512 7.88495 20.2412 6.71893 21.3257 5.95944L21.1823 5.75466L21.3257 5.95943C21.4103 5.90018 21.4879 5.91422 21.5512 5.97478C21.6201 6.04078 21.6665 6.16524 21.615 6.31209C17.9807 16.663 10.812 21.3679 8.53588 22.6428L8.53581 22.6429C8.46606 22.682 8.40151 22.6723 8.34768 22.6307C8.28999 22.5861 8.23866 22.4964 8.2481 22.3704L7.9988 22.3518L8.2481 22.3704L8.6849 16.5404Z" stroke="black" stroke-opacity="0.65" stroke-width="0.5"/>
  <path fill-rule="evenodd" clip-rule="evenodd" d="M18.9873 14.224C18.6094 14.7512 17.7954 15.8358 17.0438 16.4987C16.8936 16.6312 16.9138 16.8534 17.0862 16.9617L21.0573 19.4545C21.2963 19.6045 21.6192 19.4264 21.5788 19.1661C21.3941 17.9748 20.8619 15.4909 19.5164 14.187C19.3661 14.0415 19.1071 14.0568 18.9873 14.224Z" fill="black" fill-opacity="0.65"/>
  <path d="M18.9873 14.224L19.1904 14.3696C19.1904 14.3696 19.1905 14.3696 19.1905 14.3696M18.9873 14.224L19.3424 14.3666C19.3225 14.3473 19.2914 14.3354 19.2569 14.3377C19.2229 14.3399 19.2012 14.3546 19.1905 14.3696M18.9873 14.224L19.1905 14.3696M18.9873 14.224L17.2191 16.7499M19.1905 14.3696C18.8129 14.8965 17.9844 16.0025 17.2092 16.6862L17.2092 16.6862C17.2001 16.6942 17.1964 16.7009 17.1948 16.7049C17.1931 16.7091 17.1926 16.7129 17.193 16.7165C17.1935 16.7218 17.1966 16.7358 17.2191 16.7499M17.2191 16.7499L17.0862 16.9617M17.2191 16.7499L17.0862 16.9617M17.2191 16.7499C17.2191 16.75 17.2192 16.75 17.2192 16.75M17.2191 16.7499L17.2192 16.75M17.0862 16.9617L17.2192 16.75M17.0862 16.9617L17.2192 16.75M17.2192 16.75L21.1902 19.2427M17.2192 16.75L21.1902 19.2427M19.3425 14.3666L19.5164 14.187C20.8619 15.4909 21.3941 17.9748 21.5788 19.1661C21.6192 19.4264 21.2963 19.6045 21.0573 19.4545L19.3425 14.3666ZM19.3425 14.3666C19.9742 14.9789 20.4276 15.883 20.7467 16.8009C21.0644 17.7144 21.2407 18.6172 21.3318 19.2044L21.3318 19.2045M19.3425 14.3666L21.3318 19.2045M21.3318 19.2045C21.333 19.2127 21.3317 19.2166 21.3295 19.2206M21.3318 19.2045L21.3295 19.2206M21.1902 19.2427C21.1902 19.2427 21.1902 19.2427 21.1902 19.2427M21.1902 19.2427L21.1902 19.2427M21.3295 19.2206C21.3262 19.2265 21.3181 19.2364 21.3019 19.2453M21.3295 19.2206L21.3019 19.2453M21.3019 19.2453C21.2682 19.264 21.2254 19.2649 21.1902 19.2427M21.3019 19.2453L21.1902 19.2427" stroke="black" stroke-opacity="0.65" stroke-width="0.5"/>
</svg>