<svg xmlns="http://www.w3.org/2000/svg" width="186" height="75" viewBox="0 0 186 75" fill="none">
  <path fill-rule="evenodd" clip-rule="evenodd" d="M98.3657 13.5713L87.8824 15.8873V7.13796L98.3657 4.86484V13.5713ZM120.167 18.4177C116.074 18.4177 113.443 20.3906 111.981 21.7631L111.438 19.104H102.249V69.1127L112.691 66.8396L112.733 54.702C114.236 55.8171 116.45 57.404 120.125 57.404C127.601 57.404 134.409 51.2279 134.409 37.6321C134.367 25.1942 127.476 18.4177 120.167 18.4177ZM117.661 47.968C115.197 47.968 113.735 47.0674 112.733 45.9523L112.691 30.0404C113.777 28.7966 115.28 27.9389 117.661 27.9389C121.462 27.9389 124.093 32.3135 124.093 37.932C124.093 43.6791 121.503 47.968 117.661 47.968ZM167.321 38.0609C167.321 27.0813 162.142 18.4177 152.244 18.4177C142.303 18.4177 136.289 27.0813 136.289 37.9752C136.289 50.8848 143.389 57.4039 153.58 57.4039C158.55 57.4039 162.309 56.2459 165.149 54.6161V46.0383C162.309 47.4965 159.051 48.3972 154.917 48.3972C150.865 48.3972 147.273 46.939 146.814 41.8781H167.237C167.237 41.6417 167.252 41.1047 167.27 40.486C167.293 39.6453 167.321 38.6539 167.321 38.0609ZM146.688 33.9862C146.688 29.1398 149.57 27.124 152.201 27.124C154.749 27.124 157.464 29.1398 157.464 33.9862H146.688ZM87.882 19.1468H98.3653V56.6747H87.882V19.1468ZM75.9796 19.1469L76.6479 22.3207C79.1121 17.6887 83.9987 18.6323 85.3352 19.1469V29.0114C84.0404 28.5396 79.8639 27.9392 77.3997 31.2417V56.6749H66.9582V19.1469H75.9796ZM55.7643 9.8399L45.5734 12.0701L45.5317 46.4243C45.5317 52.7719 50.1677 57.4468 56.349 57.4468C59.7738 57.4468 62.2798 56.8035 63.6581 56.0315V47.325C62.3216 47.8825 55.7225 49.8554 55.7225 43.5078V28.2822H63.6581V19.1468H55.7225L55.7643 9.8399ZM31.0814 27.7247C28.8678 27.7247 27.5313 28.368 27.5313 30.0407C27.5313 31.867 29.8315 32.6704 32.6851 33.667C37.3371 35.2918 43.46 37.4304 43.4859 45.3521C43.4859 53.0293 37.5134 57.4468 28.8261 57.4468C25.2342 57.4468 21.3082 56.7177 17.424 55.0022V44.7945C20.9323 46.7674 25.3595 48.2257 28.8261 48.2257C31.165 48.2257 32.8356 47.5823 32.8356 45.6094C32.8356 43.5865 30.3422 42.6618 27.332 41.5455C22.7476 39.8454 16.9646 37.7008 16.9646 30.5554C16.9646 22.964 22.603 18.4177 31.0814 18.4177C34.548 18.4177 37.9728 18.9753 41.4394 20.3906V30.4696C38.2652 28.7111 34.2556 27.7247 31.0814 27.7247Z" fill="#6461FC"/>
</svg>